<?xml version="1.0" encoding="UTF-8" standalone="no"?>
<!-- Generator: Gravit.io -->
<svg xmlns="http://www.w3.org/2000/svg" xmlns:xlink="http://www.w3.org/1999/xlink" style="isolation:isolate" viewBox="0 0 100 100" width="100pt" height="100pt"><defs><clipPath id="_clipPath_61NyHGdjiLJ7FdaQpAmNy8CeonxH5MVo"><rect width="100" height="100"/></clipPath></defs><g clip-path="url(#_clipPath_61NyHGdjiLJ7FdaQpAmNy8CeonxH5MVo)"><path d=" M 50 0.745 C 45.773 0.745 42.35 3.969 42.35 7.675 L 57.65 7.675 C 57.65 4.21 54.227 0.741 50 0.741 L 50 0.745 Z  M 19.282 1.938 C 15.247 2.252 11.242 4.118 7.926 7.438 C 1.309 14.067 -0.022 23.648 6.61 30.261 L 30.638 6.237 C 27.318 2.925 23.31 1.624 19.275 1.938 L 19.282 1.938 Z  M 77.731 1.938 C 74.743 2.34 71.84 3.762 69.362 6.241 L 93.39 30.265 C 100.022 23.648 98.691 14.071 92.074 7.438 C 87.935 3.296 82.703 1.261 77.731 1.938 Z  M 50 12.219 C 27.154 12.219 8.641 30.728 8.641 53.574 C 8.641 67.275 15.366 79.392 25.616 86.923 L 22.629 95.767 C 22.217 97.084 22.896 98.495 24.182 98.995 C 25.93 99.76 27.261 98.681 27.647 97.92 L 31.595 90.626 C 37.315 93.463 43.615 94.938 50 94.933 C 56.606 94.933 62.863 93.38 68.409 90.63 L 72.349 97.924 C 72.739 98.685 74.07 99.76 75.818 98.999 C 77.551 98.234 77.654 96.562 77.371 95.77 L 74.384 86.927 C 84.65 79.396 91.359 67.279 91.359 53.578 C 91.359 30.732 72.846 12.219 50 12.219 Z  M 46.175 22.256 L 46.175 24.887 C 46.175 26.203 46.864 27.412 47.969 28.116 C 47.707 28.508 47.543 28.958 47.491 29.428 L 46.535 48.674 C 44.956 49.806 44.021 51.631 44.026 53.574 C 44.026 56.89 46.684 59.552 50 59.552 C 50.21 59.552 50.39 59.445 50.597 59.43 L 62.312 69.83 C 62.97 70.411 64.626 70.863 66.015 69.47 C 67.407 68.082 66.944 66.437 66.374 65.768 L 55.978 53.815 L 55.978 53.574 C 55.978 51.451 54.884 49.631 53.224 48.552 L 52.509 29.428 C 52.459 28.958 52.295 28.507 52.031 28.116 C 53.143 27.419 53.82 26.2 53.825 24.887 L 53.825 22.256 C 68.004 23.977 79.375 35.165 81.318 49.271 L 78.687 49.271 C 77.088 49.176 75.569 49.974 74.74 51.345 C 73.912 52.716 73.912 54.433 74.74 55.803 C 75.569 57.174 77.088 57.973 78.687 57.877 L 81.318 57.877 C 79.406 71.83 68.256 82.98 54.303 84.892 L 54.303 82.261 C 54.344 80.93 53.764 79.656 52.734 78.813 C 51.704 77.97 50.34 77.654 49.044 77.958 C 47.042 78.406 45.638 80.21 45.697 82.261 L 45.697 84.892 C 31.744 82.98 20.594 71.83 18.682 57.877 L 21.313 57.877 C 23.69 57.877 25.616 55.951 25.616 53.574 C 25.616 51.198 23.69 49.271 21.313 49.271 L 18.682 49.271 C 20.625 35.165 31.996 23.977 46.175 22.256 Z " fill="rgb(88,88,88)"/></g></svg>