<?xml version="1.0" encoding="UTF-8" standalone="no"?>
<!-- Generator: Gravit.io -->
<svg xmlns="http://www.w3.org/2000/svg" xmlns:xlink="http://www.w3.org/1999/xlink" style="isolation:isolate" viewBox="0 0 140 22" width="140pt" height="22pt"><defs><clipPath id="_clipPath_00YQN3t9DCG2RzOgVdhgSDTlTXtqr5dI"><rect width="140" height="22"/></clipPath></defs><g clip-path="url(#_clipPath_00YQN3t9DCG2RzOgVdhgSDTlTXtqr5dI)"><path d=" M 20.68 2 L 20.68 5.936 L 19.48 5.936 L 19.48 16.736 L 20.68 16.736 L 20.68 20.672 L 11.608 20.672 L 11.608 16.736 L 12.76 16.736 L 12.76 12.776 L 9.4 12.776 L 9.4 16.736 L 10.552 16.736 L 10.552 20.672 L 1.48 20.672 L 1.48 16.736 L 2.68 16.736 L 2.68 5.936 L 1.48 5.936 L 1.48 2 L 10.552 2 L 10.552 5.936 L 9.4 5.936 L 9.4 9.584 L 12.76 9.584 L 12.76 5.936 L 11.608 5.936 L 11.608 2 L 20.68 2 Z  M 32.128 5.936 L 32.128 2 L 39.496 2 L 39.496 5.936 L 38.536 5.936 L 33.904 14.24 L 33.904 16.736 L 35.104 16.736 L 35.104 20.672 L 25.984 20.672 L 25.984 16.736 L 27.184 16.736 L 27.184 14.24 L 22.408 5.936 L 21.448 5.936 L 21.448 2 L 30.736 2 L 30.736 5.936 L 29.896 5.936 L 31.312 9.656 L 31.552 9.656 L 32.968 5.936 L 32.128 5.936 Z  M 66.736 2 L 66.736 5.936 L 65.536 5.936 L 65.536 16.736 L 66.736 16.736 L 66.736 20.672 L 57.664 20.672 L 57.664 16.736 L 58.816 16.736 L 58.816 8.336 L 54.736 20.672 L 51.184 20.672 L 46.984 8.456 L 46.984 16.736 L 48.136 16.736 L 48.136 20.672 L 40.264 20.672 L 40.264 16.736 L 41.464 16.736 L 41.464 5.936 L 40.264 5.936 L 40.264 2 L 51.256 2 L 53.752 9.488 L 56.152 2 L 66.736 2 Z " fill="rgb(248,205,170)"/><path d=" M 85.384 2.336 L 85.384 8.144 L 81.256 8.144 L 81.256 6.272 L 79.72 6.272 L 79.72 17.072 L 81.4 17.072 L 81.4 21.008 L 71.32 21.008 L 71.32 17.072 L 73 17.072 L 73 6.272 L 71.464 6.272 L 71.464 8.144 L 67.336 8.144 L 67.336 2.336 L 85.384 2.336 Z  M 102.4 21.008 L 86.2 21.008 L 86.2 17.072 L 87.4 17.072 L 87.4 6.272 L 86.2 6.272 L 86.2 2.336 L 102.4 2.336 L 102.4 9.584 L 97.024 9.584 L 97.024 6.272 L 94.12 6.272 L 94.12 10.064 L 96.232 10.064 L 96.232 12.8 L 94.12 12.8 L 94.12 17.072 L 97.024 17.072 L 97.024 13.28 L 102.4 13.28 L 102.4 21.008 Z  M 110.752 21.344 L 110.752 21.344 Q 108.448 21.344 106.396 20.948 L 106.396 20.948 L 106.396 20.948 Q 104.344 20.552 103.24 20.048 L 103.24 20.048 L 103.24 15.296 L 108.52 15.296 L 108.52 15.296 Q 108.52 16.04 108.856 16.376 L 108.856 16.376 L 108.856 16.376 Q 109.192 16.712 110.08 16.712 L 110.08 16.712 L 110.08 16.712 Q 110.824 16.712 111.148 16.484 L 111.148 16.484 L 111.148 16.484 Q 111.472 16.256 111.472 15.8 L 111.472 15.8 L 111.472 15.8 Q 111.472 15.416 111.16 15.14 L 111.16 15.14 L 111.16 15.14 Q 110.848 14.864 110.08 14.576 L 110.08 14.576 L 108.016 13.856 L 108.016 13.856 Q 105.352 12.848 104.188 11.48 L 104.188 11.48 L 104.188 11.48 Q 103.024 10.112 103.024 7.784 L 103.024 7.784 L 103.024 7.784 Q 103.024 4.952 104.884 3.476 L 104.884 3.476 L 104.884 3.476 Q 106.744 2 111.088 2 L 111.088 2 L 111.088 2 Q 113.176 2 115.012 2.42 L 115.012 2.42 L 115.012 2.42 Q 116.848 2.84 117.976 3.536 L 117.976 3.536 L 117.976 7.832 L 113.176 7.832 L 113.176 7.832 Q 113.176 6.632 111.688 6.632 L 111.688 6.632 L 111.688 6.632 Q 110.968 6.632 110.668 6.812 L 110.668 6.812 L 110.668 6.812 Q 110.368 6.992 110.368 7.448 L 110.368 7.448 L 110.368 7.448 Q 110.368 7.856 110.716 8.096 L 110.716 8.096 L 110.716 8.096 Q 111.064 8.336 111.856 8.6 L 111.856 8.6 L 113.944 9.32 L 113.944 9.32 Q 116.488 10.184 117.652 11.564 L 117.652 11.564 L 117.652 11.564 Q 118.816 12.944 118.816 15.176 L 118.816 15.176 L 118.816 15.176 Q 118.816 18.224 116.764 19.784 L 116.764 19.784 L 116.764 19.784 Q 114.712 21.344 110.752 21.344 L 110.752 21.344 Z  M 137.392 2.336 L 137.392 8.144 L 133.264 8.144 L 133.264 6.272 L 131.728 6.272 L 131.728 17.072 L 133.408 17.072 L 133.408 21.008 L 123.328 21.008 L 123.328 17.072 L 125.008 17.072 L 125.008 6.272 L 123.472 6.272 L 123.472 8.144 L 119.344 8.144 L 119.344 2.336 L 137.392 2.336 Z " fill="rgb(35,194,172)"/></g></svg>